<svg xmlns="http://www.w3.org/2000/svg" viewBox="0 0 124 33" width="124" height="33">
  <path fill="#009cde" d="M46.2 7.1h-9.7c-.7 0-1.3.5-1.4 1.2l-3.9 24.9c-.1.5.3 1 .8 1h4.9c.5 0 .9-.4 1-.8l1.1-7c.1-.7.7-1.2 1.4-1.2h3.1c6.3 0 9.9-3 10.8-9 .4-2.6 0-4.7-1.2-6.1-1.4-1.6-3.8-2.4-6.9-2.4zm1.1 8.9c-.5 3.4-3.1 3.4-5.6 3.4h-1.4l1-6.3c.1-.4.4-.7.8-.7h.7c1.7 0 3.3 0 4.1 1 .5.6.6 1.5.4 2.6z"/>
  <path fill="#012169" d="M22.2 7.1H12.5c-.7 0-1.3.5-1.4 1.2L7.2 33.2c-.1.5.3 1 .8 1h4.7c.7 0 1.3-.5 1.4-1.2l1.1-6.8c.1-.7.7-1.2 1.4-1.2h3.1c6.3 0 9.9-3 10.8-9 .4-2.6 0-4.7-1.2-6.1-1.3-1.6-3.7-2.4-6.8-2.4zm1.1 8.9c-.5 3.4-3.1 3.4-5.6 3.4h-1.4l1-6.3c.1-.4.4-.7.8-.7h.7c1.7 0 3.3 0 4.1 1 .5.6.6 1.5.4 2.6z"/>
  <path fill="#009cde" d="M94.4 16h-4.7c-.4 0-.8.3-.8.7l-.2 1.2-.3-.5c-.9-1.3-2.9-1.8-4.9-1.8-4.6 0-8.5 3.5-9.3 8.4-.4 2.4.2 4.8 1.5 6.4 1.3 1.5 3.1 2.1 5.2 2.1 3.7 0 5.8-2.4 5.8-2.4l-.2 1.2c-.1.5.3 1 .8 1h4.3c.7 0 1.3-.5 1.4-1.2l2.6-15.3c-.1-.6-.5-1-1.2-1zm-6.5 8.1c-.4 2.4-2.4 4-4.9 4-1.2 0-2.2-.4-2.8-1.2-.6-.7-.9-1.8-.7-2.9.4-2.3 2.4-4 4.8-4 1.2 0 2.2.4 2.8 1.2.7.8.9 1.9.8 2.9z"/>
  <path fill="#012169" d="M68.4 16h-4.7c-.4 0-.8.3-.8.7l-.2 1.2-.3-.5c-.9-1.3-2.9-1.8-4.9-1.8-4.6 0-8.5 3.5-9.3 8.4-.4 2.4.2 4.8 1.5 6.4 1.3 1.5 3.1 2.1 5.2 2.1 3.7 0 5.8-2.4 5.8-2.4l-.2 1.2c-.1.5.3 1 .8 1h4.3c.7 0 1.3-.5 1.4-1.2l2.6-15.3c-.1-.6-.5-1-1.2-1zm-6.5 8.1c-.4 2.4-2.4 4-4.9 4-1.2 0-2.2-.4-2.8-1.2-.6-.7-.9-1.8-.7-2.9.4-2.3 2.4-4 4.8-4 1.2 0 2.2.4 2.8 1.2.7.8.9 1.9.8 2.9z"/>
  <path fill="#009cde" d="M115.5 16h-4.8c-.5 0-.9.2-1.2.6l-6.7 9.9-2.9-9.5c-.2-.6-.7-1-1.3-1h-4.7c-.6 0-1 .6-.8 1.1l5.4 15.9-5.1 7.2c-.4.5 0 1.2.7 1.2h4.8c.5 0 .9-.2 1.2-.6l16.3-23.5c.3-.5-.1-1.3-.9-1.3z"/>
</svg>
